<svg fill="none" height="49" viewBox="0 0 155 49" width="155" xmlns="http://www.w3.org/2000/svg"><path d="M81.6774 12.1355C81.6782 12.5484 81.5974 12.9575 81.4395 13.3392C81.2816 13.7209 81.0499 14.0677 80.7575 14.3597C80.4651 14.6517 80.1178 14.8831 79.7356 15.0408C79.3534 15.1985 78.9438 15.2792 78.5303 15.2784C78.1168 15.2792 77.7072 15.1984 77.325 15.0408C76.9429 14.8831 76.5956 14.6517 76.3033 14.3596C76.0109 14.0676 75.7792 13.7208 75.6214 13.3391C75.4636 12.9574 75.3828 12.5484 75.3837 12.1355C75.3837 10.3947 76.7393 8.99303 78.5303 8.99303C80.3217 9.04133 81.6774 10.4435 81.6774 12.1355ZM68.7026 18.4691V19.2428C68.7026 19.2428 67.2018 17.3089 64.0063 17.3089C58.7293 17.3089 54.6144 21.3217 54.6144 26.882C54.6144 32.3936 58.6809 36.4551 64.0063 36.4551C67.2502 36.4551 68.7026 34.4724 68.7026 34.4724V35.2945C68.7026 35.6809 68.9932 35.9717 69.3801 35.9717H73.302V17.7924H69.3801C68.9932 17.7924 68.7026 18.1305 68.7026 18.4691V18.4691ZM68.7026 30.121C67.9766 31.1851 66.5242 32.1033 64.7811 32.1033C61.6829 32.1033 59.3106 30.1698 59.3106 26.882C59.3106 23.5942 61.6829 21.6603 64.7811 21.6603C66.4754 21.6603 68.025 22.6272 68.7026 23.6425V30.121ZM76.2068 17.7924H80.8542V35.9717H76.2068V17.7924V17.7924ZM145.631 17.3089C142.436 17.3089 140.935 19.2428 140.935 19.2428V9.04133H136.288V35.9717H140.209C140.596 35.9717 140.887 35.6331 140.887 35.2945V34.4724C140.887 34.4724 142.387 36.4551 145.583 36.4551C150.86 36.4551 154.975 32.3936 154.975 26.882C154.975 21.37 150.86 17.3089 145.631 17.3089ZM144.857 32.055C143.065 32.055 141.661 31.1368 140.935 30.0727V23.5947C141.661 22.6277 143.21 21.6125 144.857 21.6125C147.955 21.6125 150.327 23.5464 150.327 26.8337C150.327 30.1215 147.955 32.0555 144.857 32.0555V32.055ZM133.867 25.1896V36.02H129.219V25.7214C129.219 22.7238 128.251 21.5149 125.637 21.5149C124.233 21.5149 122.78 22.2404 121.86 23.3039V35.9717H117.212V17.7924H120.892C121.279 17.7924 121.57 18.1305 121.57 18.4691V19.2428C122.925 17.8407 124.717 17.3089 126.508 17.3089C128.541 17.3089 130.236 17.889 131.591 19.0492C133.237 20.403 133.867 22.1438 133.867 25.1896V25.1896ZM105.932 17.3089C102.737 17.3089 101.236 19.2428 101.236 19.2428V9.04133H96.5887V35.9717H100.51C100.898 35.9717 101.188 35.6331 101.188 35.2945V34.4724C101.188 34.4724 102.688 36.4551 105.884 36.4551C111.161 36.4551 115.276 32.3936 115.276 26.882C115.324 21.37 111.209 17.3089 105.932 17.3089V17.3089ZM105.158 32.055C103.367 32.055 101.963 31.1368 101.236 30.0727V23.5947C101.963 22.6277 103.512 21.6125 105.158 21.6125C108.256 21.6125 110.629 23.5464 110.629 26.8337C110.629 30.1215 108.256 32.0555 105.158 32.0555V32.055ZM92.5701 17.3089C93.9741 17.3089 94.7006 17.5504 94.7006 17.5504V21.854C94.7006 21.854 90.8275 20.5479 88.4069 23.3039V36.02H83.759V17.7924H87.6804C88.0678 17.7924 88.3585 18.1305 88.3585 18.4691V19.2428C89.23 18.2276 91.1177 17.3089 92.5701 17.3089V17.3089ZM44.302 34.3275C44.0602 33.7474 43.8184 33.119 43.5766 32.5873C43.1887 31.7169 42.8018 30.8948 42.4627 30.121L42.4144 30.0727C39.0738 22.8204 35.4909 15.4716 31.7151 8.21926L31.57 7.92946C31.1728 7.17699 30.7854 6.41941 30.4078 5.65693C29.9237 4.78656 29.4395 3.86789 28.6647 2.99752C27.1156 1.06357 24.8889 0 22.5166 0C20.0959 0 17.9171 1.06357 16.3196 2.90092C15.5932 3.77129 15.0607 4.68996 14.5766 5.55985C14.1994 6.32247 13.8121 7.08004 13.4148 7.83238L13.2697 8.12218C9.54178 15.3754 5.91006 22.7243 2.56951 29.9766L2.52114 30.0732C2.18259 30.847 1.79519 31.6691 1.40779 32.5389C1.14849 33.1117 0.906236 33.6921 0.681348 34.2792C0.0526054 36.0683 -0.141337 37.7602 0.10097 39.5005C0.632983 43.1269 3.05364 46.1732 6.3942 47.5265C7.65362 48.0588 8.9614 48.3003 10.3161 48.3003C10.7035 48.3003 11.1876 48.252 11.575 48.2037C13.1725 48.0105 14.8189 47.4782 16.4163 46.5596C18.4012 45.4477 20.2894 43.8523 22.4194 41.5315C24.5499 43.8523 26.4864 45.4477 28.4229 46.5596C30.0204 47.4782 31.6667 48.01 33.2642 48.2037C33.6511 48.252 34.1358 48.3003 34.5227 48.3003C35.8783 48.3003 37.234 48.0588 38.4446 47.5265C41.8335 46.1732 44.2053 43.0786 44.7383 39.501C45.1252 37.8085 44.9317 36.1166 44.3025 34.328L44.302 34.3275ZM22.4682 36.8415C19.8536 33.5542 18.1589 30.4596 17.5786 27.849C17.3362 26.7366 17.2879 25.7697 17.4335 24.8998C17.5302 24.126 17.8204 23.4488 18.2073 22.8687C19.1277 21.5637 20.6768 20.7416 22.4682 20.7416C24.2592 20.7416 25.8567 21.5154 26.7282 22.8687C27.1156 23.4488 27.4063 24.126 27.503 24.8998C27.6481 25.7697 27.5997 26.7854 27.3579 27.849C26.7766 30.4113 25.0823 33.5054 22.4682 36.8415V36.8415ZM41.7851 39.1141C41.4461 41.6281 39.7514 43.804 37.3791 44.771C36.2174 45.254 34.9584 45.3994 33.7 45.254C32.4894 45.1091 31.2793 44.7227 30.0204 43.9972C28.2778 43.0303 26.5347 41.5315 24.5015 39.3073C27.6965 35.3911 29.633 31.8135 30.3594 28.6223C30.698 27.1235 30.7464 25.7697 30.6013 24.5129C30.4078 23.3039 29.972 22.1921 29.2944 21.2251C27.7937 19.0492 25.2758 17.7924 22.4682 17.7924C19.6602 17.7924 17.1423 19.0975 15.6415 21.2251C14.964 22.1921 14.5282 23.3039 14.3347 24.5129C14.1413 25.7697 14.1896 27.1718 14.5766 28.6223C15.303 31.8135 17.2879 35.4394 20.4345 39.3556C18.4496 41.5798 16.6587 43.0786 14.9156 44.0455C13.6567 44.771 12.4466 45.1574 11.236 45.3028C9.92918 45.4477 8.67024 45.2545 7.55689 44.8193C5.18459 43.8523 3.48989 41.6764 3.15085 39.1624C3.00576 37.9539 3.10249 36.7449 3.58662 35.3911C3.73171 34.9081 3.97402 34.4241 4.21633 33.844C4.55488 33.0707 4.94229 32.2487 5.32969 31.4266L5.37805 31.33C8.71861 24.126 12.301 16.7771 16.0289 9.62142L16.174 9.33162C16.5614 8.60615 16.9488 7.83238 17.3362 7.10739C17.7232 6.33362 18.1594 5.60863 18.6919 4.97976C19.7085 3.81959 21.0642 3.1912 22.565 3.1912C24.0657 3.1912 25.4214 3.81911 26.438 4.97976C26.97 5.60863 27.4063 6.33362 27.7937 7.10739C28.1806 7.83238 28.568 8.60615 28.9554 9.33114L29.1005 9.62094C32.7714 16.8062 36.3062 24.0599 39.703 31.3783V31.4266C40.0899 32.2004 40.4295 33.0707 40.8164 33.844C41.0582 34.4241 41.3005 34.9076 41.4461 35.3911C41.833 36.6483 41.9781 37.8568 41.7846 39.1141H41.7851Z" fill="black"></path></svg>