<?xml version="1.0" encoding="utf-8"?>
<!-- Generator: Adobe Illustrator 25.4.1, SVG Export Plug-In . SVG Version: 6.00 Build 0)  -->
<svg version="1.1" id="Capa_1" xmlns="http://www.w3.org/2000/svg" xmlns:xlink="http://www.w3.org/1999/xlink" x="0px" y="0px"
	 viewBox="0 0 100 100" style="enable-background:new 0 0 100 100;" xml:space="preserve">
<style type="text/css">
	.st0{fill:#FFFFFF;}
</style>
<g>
	<g>
		<path class="st0" d="M50,53.8c-1.9,0-3.9-0.7-5.4-2.2L6.5,13.5c-3-3-3-7.8,0-10.8s7.8-3,10.8,0L50,35.4L82.7,2.7c3-3,7.8-3,10.8,0
			c3,3,3,7.8,0,10.8L55.4,51.6C53.9,53.1,51.9,53.8,50,53.8z"/>
	</g>
	<g>
		<path class="st0" d="M50,99.5c-1.9,0-3.9-0.7-5.4-2.2L6.5,59.2c-3-3-3-7.8,0-10.8c3-3,7.8-3,10.8,0L50,81.1l32.7-32.7
			c3-3,7.8-3,10.8,0c3,3,3,7.8,0,10.8L55.4,97.3C53.9,98.8,51.9,99.5,50,99.5z"/>
	</g>
</g>
</svg>
