<svg viewBox="0 0 16 10" fill="none" xmlns="http://www.w3.org/2000/svg">
	<path d="M14.2505 9.31336C14.0003 9.31395 13.7577 9.20944 13.5651 9.01797L7.82445 3.26412L2.07313 8.81247C1.96358 8.91916 1.83753 8.99883 1.70222 9.0469C1.5669 9.09498 1.42501 9.11051 1.28467 9.09261C1.14434 9.0747 1.00834 9.02372 0.884493 8.94258C0.760646 8.86145 0.65139 8.75176 0.563008 8.61982C0.474043 8.48845 0.407607 8.33729 0.367518 8.17502C0.327428 8.01276 0.314475 7.8426 0.329404 7.67431C0.344333 7.50603 0.386849 7.34294 0.454509 7.19442C0.522169 7.0459 0.613638 6.91489 0.723659 6.8089L7.14971 0.605538C7.34135 0.416635 7.58173 0.313366 7.8298 0.313366C8.07787 0.313366 8.31825 0.416635 8.50989 0.605538L14.9359 7.02724C15.0444 7.13506 15.134 7.26747 15.1997 7.4169C15.2655 7.56633 15.3059 7.72984 15.3189 7.89806C15.3318 8.06628 15.3169 8.2359 15.2751 8.39722C15.2333 8.55854 15.1654 8.70838 15.0752 8.83816C14.9755 8.98549 14.8499 9.10451 14.7073 9.18668C14.5647 9.26884 14.4087 9.31211 14.2505 9.31336Z" fill="black"/>
</svg>
