<?xml version="1.0" encoding="utf-8"?>
<!-- Generator: Adobe Illustrator 25.4.1, SVG Export Plug-In . SVG Version: 6.00 Build 0)  -->
<svg version="1.1" id="Capa_1" xmlns="http://www.w3.org/2000/svg" xmlns:xlink="http://www.w3.org/1999/xlink" x="0px" y="0px"
	 viewBox="0 0 100 100" style="enable-background:new 0 0 100 100;" xml:space="preserve">
<style type="text/css">
	.st0{fill:#FFFFFF;}
</style>
<path class="st0" d="M99,52.4c0.6-1.5,0.6-3.2,0-4.7c-0.3-0.8-0.8-1.4-1.3-2L60.6,8.5c-2.4-2.4-6.3-2.4-8.8,0s-2.4,6.3,0,8.8
	l26.6,26.6H6.7c-3.4,0-6.2,2.8-6.2,6.2s2.8,6.2,6.2,6.2h71.7L51.8,82.8c-2.4,2.4-2.4,6.3,0,8.8c1.2,1.2,2.8,1.8,4.4,1.8
	c1.6,0,3.2-0.6,4.4-1.8l37.1-37.1C98.3,53.8,98.7,53.1,99,52.4z"/>
</svg>
