<?xml version="1.0" encoding="utf-8"?>
<!-- Generator: Adobe Illustrator 25.4.1, SVG Export Plug-In . SVG Version: 6.00 Build 0)  -->
<svg version="1.1" id="Capa_1" xmlns="http://www.w3.org/2000/svg" xmlns:xlink="http://www.w3.org/1999/xlink" x="0px" y="0px"
	 viewBox="0 0 100 100" style="enable-background:new 0 0 100 100;" xml:space="preserve">
<style type="text/css">
	.st0{fill-rule:evenodd;clip-rule:evenodd;}
</style>
<path class="st0" d="M60.4,68.6c-6.2,4.6-13.9,7.2-22.2,7.2C17.4,75.8,0.5,59,0.5,38.2c0-20.8,16.9-37.7,37.7-37.7
	c20.8,0,37.7,16.9,37.7,37.7c0,8.3-2.7,16-7.2,22.2l29.2,29.2c2.3,2.3,2.3,5.9,0,8.2c-2.3,2.3-5.9,2.3-8.2,0L60.4,68.6z M64.2,38.2
	c0,14.4-11.7,26.1-26.1,26.1c-14.4,0-26.1-11.7-26.1-26.1c0-14.4,11.7-26.1,26.1-26.1C52.6,12.1,64.2,23.8,64.2,38.2z"/>
</svg>
