<?xml version="1.0" encoding="utf-8"?>
<!-- Generator: Adobe Illustrator 25.4.1, SVG Export Plug-In . SVG Version: 6.00 Build 0)  -->
<svg version="1.1" id="Capa_1" xmlns="http://www.w3.org/2000/svg" xmlns:xlink="http://www.w3.org/1999/xlink" x="0px" y="0px"
	 viewBox="0 0 88.4 88.5" style="enable-background:new 0 0 88.4 88.5;" xml:space="preserve">
<style type="text/css">
	.st0{fill-rule:evenodd;clip-rule:evenodd;}
</style>
<path class="st0" d="M60.5,68.8C54.3,73.4,46.6,76,38.3,76C17.5,76,0.6,59.2,0.6,38.4S17.5,0.7,38.3,0.7S76,17.6,76,38.4
	c0,8.3-2.7,16-7.2,22.2l17.3,17.3c2.3,2.3,2.3,5.9,0,8.2c-2.3,2.3-5.9,2.3-8.2,0L60.5,68.8z M64.3,38.4c0,14.4-11.7,26.1-26.1,26.1
	S12.1,52.8,12.1,38.4s11.7-26.1,26.1-26.1C52.7,12.3,64.3,24,64.3,38.4z"/>
</svg>
