<?xml version="1.0" encoding="utf-8"?>
<!-- Generator: Adobe Illustrator 25.4.1, SVG Export Plug-In . SVG Version: 6.00 Build 0)  -->
<svg version="1.1" id="Capa_1" xmlns="http://www.w3.org/2000/svg" xmlns:xlink="http://www.w3.org/1999/xlink" x="0px" y="0px"
	 viewBox="0 0 100 100" style="enable-background:new 0 0 100 100;" xml:space="preserve">
<style type="text/css">
	.st0{fill-rule:evenodd;clip-rule:evenodd;fill:#FFFFFF;}
</style>
<path class="st0" d="M26.2,15L85,73.8c3.1,3.1,3,8.1,0,11.2s-8.1,3-11.2,0L15,26.2c-3.1-3.1-3-8.1,0-11.2S23.1,12,26.2,15L26.2,15z"
	/>
<path class="st0" d="M15,73.8L73.8,15c3.1-3.1,8.1-3,11.2,0c3,3,3,8.1,0,11.2L26.2,85c-3.1,3.1-8.1,3-11.2,0C12,82,12,76.9,15,73.8
	L15,73.8z"/>
</svg>
