<?xml version="1.0" encoding="utf-8"?>
<!-- Generator: Adobe Illustrator 25.4.1, SVG Export Plug-In . SVG Version: 6.00 Build 0)  -->
<svg version="1.1" id="Capa_1" xmlns="http://www.w3.org/2000/svg" xmlns:xlink="http://www.w3.org/1999/xlink" x="0px" y="0px"
	 viewBox="0 0 100 100" style="enable-background:new 0 0 100 100;" xml:space="preserve">
<style type="text/css">
	.st0{fill-rule:evenodd;clip-rule:evenodd;}
</style>
<g>
	<g>
		<path class="st0" d="M8.4,11h83.2c4.4,0,7.9,3.6,7.9,7.9s-3.6,7.9-7.9,7.9H8.4c-4.4,0-7.9-3.6-7.9-7.9S4.1,11,8.4,11L8.4,11z"/>
		<path class="st0" d="M8.4,42.1h83.2c4.4,0,7.9,3.6,7.9,7.9s-3.6,7.9-7.9,7.9H8.4c-4.4,0-7.9-3.6-7.9-7.9S4.1,42.1,8.4,42.1
			L8.4,42.1z"/>
		<path class="st0" d="M8.4,73.2h83.2c4.4,0,7.9,3.6,7.9,7.9c0,4.4-3.6,7.9-7.9,7.9H8.4c-4.4,0-7.9-3.6-7.9-7.9S4.1,73.2,8.4,73.2
			L8.4,73.2z"/>
	</g>
</g>
</svg>
