<svg fill="none" height="32" viewBox="0 0 206 32" width="206" xmlns="http://www.w3.org/2000/svg"><g clip-path="url(#clip0_1889_901)"><path d="M204.512 24.1377C204.293 24.1377 204.078 24.202 203.896 24.3224C203.714 24.4429 203.571 24.614 203.488 24.8143C203.404 25.0146 203.382 25.235 203.424 25.4476C203.467 25.6602 203.573 25.8555 203.728 26.0088C203.883 26.1621 204.081 26.2665 204.296 26.3088C204.511 26.3511 204.734 26.3294 204.936 26.2464C205.139 26.1634 205.312 26.023 205.434 25.8427C205.556 25.6625 205.621 25.4505 205.621 25.2338C205.621 24.9431 205.504 24.6643 205.296 24.4587C205.088 24.2532 204.806 24.1377 204.512 24.1377ZM204.512 26.158C204.327 26.158 204.146 26.1037 203.993 26.0022C203.839 25.9006 203.719 25.7562 203.648 25.5873C203.577 25.4184 203.559 25.2326 203.595 25.0533C203.631 24.874 203.72 24.7093 203.851 24.5801C203.982 24.4509 204.148 24.3629 204.33 24.3273C204.511 24.2917 204.699 24.31 204.87 24.38C205.041 24.4501 205.187 24.5686 205.29 24.7206C205.392 24.8727 205.447 25.0514 205.447 25.2342C205.447 25.4792 205.348 25.7141 205.173 25.8873C204.998 26.0605 204.76 26.1578 204.512 26.158V26.158ZM204.872 25.0474C204.872 24.8479 204.728 24.7296 204.517 24.7296H204.163V25.7279H204.337V25.3657H204.526L204.709 25.7279H204.897L204.699 25.3285C204.753 25.3046 204.799 25.265 204.83 25.2147C204.861 25.1645 204.876 25.1062 204.872 25.0474V25.0474ZM204.51 25.2132H204.339V24.8821H204.51C204.627 24.8821 204.698 24.9405 204.698 25.0474C204.698 25.1544 204.627 25.2145 204.51 25.2145V25.2132ZM16.5569 17.9502C16.557 18.7996 16.3022 19.6299 15.8249 20.3362C15.3476 21.0425 14.6691 21.593 13.8752 21.918C13.0813 22.2431 12.2078 22.3282 11.365 22.1625C10.5222 21.9968 9.74804 21.5878 9.14042 20.9872C8.53281 20.3866 8.11903 19.6214 7.95141 18.7883C7.7838 17.9553 7.86987 17.0918 8.19875 16.307C8.52762 15.5223 9.08453 14.8516 9.79905 14.3798C10.5136 13.908 11.3536 13.6562 12.2129 13.6563C13.365 13.6563 14.4699 14.1087 15.2846 14.9139C16.0992 15.7192 16.5569 16.8114 16.5569 17.9502ZM41.0482 17.9502C41.0483 18.7996 40.7936 19.6299 40.3163 20.3361C39.839 21.0424 39.1605 21.5929 38.3666 21.918C37.5728 22.2431 36.6993 22.3282 35.8565 22.1626C35.0137 21.9969 34.2396 21.5879 33.6319 20.9874C33.0243 20.3868 32.6105 19.6216 32.4428 18.7886C32.2752 17.9556 32.3612 17.0921 32.69 16.3073C33.0188 15.5226 33.5756 14.8519 34.2901 14.38C35.0045 13.9081 35.8445 13.6563 36.7038 13.6563C37.8559 13.6563 38.9609 14.1086 39.7756 14.9139C40.5904 15.7192 41.0481 16.8113 41.0482 17.9502V17.9502ZM40.0569 4.74394C35.6158 1.74862 30.2547 0.000174613 24.4585 0.000174613C18.9033 -0.0106241 13.4752 1.64335 8.89032 4.74394H0.000457764L3.99985 9.04577C2.74214 10.177 1.7377 11.5558 1.05108 13.0935C0.364448 14.6312 0.0108096 16.2939 0.0128768 17.9747C0.0128768 24.6471 5.48526 30.0564 12.2355 30.0564C15.3164 30.0605 18.2844 28.9099 20.5412 26.8366L24.4594 31.0508L28.3768 26.8366C30.6335 28.9089 33.6009 30.0588 36.6812 30.0547C43.4314 30.0547 48.9087 24.6454 48.9087 17.973C48.9107 16.2921 48.5571 14.6295 47.8705 13.0917C47.1838 11.554 46.1794 10.1752 44.9217 9.04402L48.9211 4.74219L40.0569 4.74394ZM12.2355 26.1509C7.66703 26.1509 3.96393 22.4905 3.96393 17.9747C3.96393 13.459 7.66748 9.79855 12.2355 9.79855C16.8035 9.79855 20.5075 13.459 20.5075 17.9747C20.5075 22.4905 16.8039 26.1509 12.2355 26.1509ZM24.4608 17.7393C24.4608 12.3585 20.5017 7.74321 15.2795 5.76766C18.1882 4.56977 21.3081 3.95304 24.4592 3.95304C27.6103 3.95304 30.7302 4.56977 33.6389 5.76766C28.4194 7.74277 24.4608 12.359 24.4608 17.7393ZM44.9523 17.9747C44.9523 22.4905 41.2487 26.1509 36.6807 26.1509C32.1127 26.1509 28.4087 22.4905 28.4087 17.9747C28.4087 13.459 32.1123 9.79855 36.6807 9.79855C41.2492 9.79855 44.9527 13.459 44.9527 17.9747H44.9523ZM73.9646 10.3703H75.8883V14.1337H73.6373C71.9035 14.1337 70.7911 14.9746 70.7911 16.6888V26.1509H66.676V10.3703H70.7911V13.0219C71.1513 11.1463 72.4602 10.3703 73.9651 10.3703H73.9646ZM82.23 6.61777C82.23 7.26962 81.968 7.89478 81.5017 8.35571C81.0354 8.81664 80.403 9.07559 79.7435 9.07559C79.0841 9.07559 78.4516 8.81664 77.9853 8.35571C77.519 7.89478 77.257 7.26962 77.257 6.61777C77.257 5.22709 78.3366 4.12751 79.7435 4.12751C81.1504 4.12751 82.2304 5.22709 82.2304 6.61777H82.23ZM77.6913 10.3703H81.794V26.1509H77.6899L77.6913 10.3703ZM93.0976 10.1037C91.3485 10.0953 89.6455 10.6582 88.2533 11.7048V10.3703H84.1496V30.7825H88.2533V24.8164C89.6455 25.863 91.3485 26.4259 93.0976 26.4175C97.6554 26.4175 101.347 22.7654 101.347 18.2606C101.347 13.7558 97.6559 10.1037 93.098 10.1037H93.0976ZM92.7361 22.6918C91.8495 22.6918 90.9828 22.4319 90.2456 21.945C89.5084 21.4581 88.9338 20.766 88.5945 19.9563C88.2552 19.1466 88.1664 18.2557 88.3394 17.3961C88.5124 16.5366 88.9393 15.747 89.5663 15.1273C90.1932 14.5076 90.992 14.0856 91.8616 13.9146C92.7311 13.7436 93.6325 13.8314 94.4516 14.1667C95.2708 14.5021 95.9709 15.0701 96.4635 15.7988C96.9561 16.5275 97.219 17.3842 97.219 18.2606C97.219 19.4357 96.7467 20.5628 95.9061 21.3938C95.0655 22.2248 93.9254 22.6917 92.7366 22.6918H92.7361ZM176.59 21.166C176.59 24.2087 173.95 26.4175 170.311 26.4175C166.536 26.4175 163.899 24.1566 163.899 20.9188V20.8311H167.915V20.9188C167.915 22.27 168.89 23.178 170.344 23.178C171.738 23.178 172.674 22.5059 172.674 21.5058C172.674 20.5584 172.026 20.0288 170.284 19.5522L167.991 18.934C165.58 18.2891 164.198 16.7366 164.198 14.6752C164.198 12.0262 166.726 10.1037 170.211 10.1037C173.729 10.1037 176.092 12.0275 176.092 14.8917V14.9816H172.308V14.8917C172.308 13.9193 171.387 13.1578 170.211 13.1578C168.977 13.1578 168.114 13.7181 168.114 14.5208C168.114 15.3433 168.728 15.8212 170.304 16.2267L172.699 16.8761C175.915 17.7244 176.591 19.6772 176.591 21.166H176.59ZM115.914 11.7048C114.521 10.6577 112.817 10.0949 111.068 10.1037C106.51 10.1037 102.816 13.7558 102.816 18.2606C102.816 22.7654 106.511 26.4175 111.068 26.4175C112.817 26.4259 114.52 25.863 115.912 24.8164V26.1509H120.016V10.3703H115.912L115.914 11.7048ZM115.914 18.261C115.914 19.1374 115.651 19.9941 115.158 20.7227C114.666 21.4514 113.966 22.0193 113.147 22.3546C112.327 22.6899 111.426 22.7776 110.556 22.6066C109.687 22.4355 108.888 22.0135 108.261 21.3938C107.634 20.774 107.207 19.9845 107.035 19.1249C106.862 18.2654 106.95 17.3744 107.29 16.5648C107.629 15.7551 108.204 15.0631 108.941 14.5762C109.678 14.0893 110.545 13.8294 111.431 13.8294C112.62 13.8299 113.76 14.297 114.6 15.128C115.441 15.9591 115.913 17.086 115.913 18.261H115.914ZM134.841 11.7048C133.449 10.6582 131.746 10.0953 129.997 10.1037C125.44 10.1037 121.745 13.7558 121.745 18.2606C121.745 22.7654 125.44 26.4175 129.997 26.4175C131.746 26.4259 133.449 25.863 134.841 24.8164V26.1509H138.945V4.75315H134.841V11.7048ZM130.359 22.6918C129.472 22.6919 128.606 22.432 127.868 21.9452C127.131 21.4583 126.556 20.7663 126.217 19.9566C125.878 19.147 125.789 18.256 125.962 17.3964C126.135 16.5368 126.562 15.7472 127.188 15.1275C127.815 14.5077 128.614 14.0856 129.484 13.9146C130.353 13.7436 131.255 13.8313 132.074 14.1667C132.893 14.5021 133.593 15.07 134.086 15.7987C134.578 16.5274 134.841 17.3842 134.841 18.2606C134.841 18.8427 134.725 19.419 134.5 19.9567C134.275 20.4945 133.944 20.983 133.528 21.3945C133.111 21.806 132.617 22.1324 132.073 22.355C131.529 22.5776 130.946 22.692 130.357 22.6918H130.359ZM158.006 10.372H162.111V26.1509H158.006V10.372ZM162.545 6.61953C162.545 7.27138 162.283 7.89653 161.817 8.35746C161.351 8.81839 160.718 9.07734 160.059 9.07734C159.399 9.07734 158.767 8.81839 158.301 8.35746C157.834 7.89653 157.572 7.27138 157.572 6.61953C157.572 5.22884 158.652 4.12927 160.059 4.12927C161.466 4.12927 162.543 5.22709 162.543 6.61777L162.545 6.61953ZM186.084 10.1054C181.527 10.1054 177.832 13.7575 177.832 18.2624C177.832 22.7672 181.527 26.4193 186.084 26.4193C190.642 26.4193 194.334 22.7672 194.334 18.2624C194.334 13.7575 190.639 10.1037 186.082 10.1037L186.084 10.1054ZM186.084 22.6935C185.198 22.6935 184.331 22.4336 183.594 21.9467C182.857 21.4598 182.282 20.7678 181.943 19.9581C181.603 19.1484 181.515 18.2574 181.688 17.3979C181.861 16.5383 182.287 15.7488 182.914 15.129C183.541 14.5093 184.34 14.0873 185.21 13.9163C186.079 13.7454 186.981 13.8331 187.8 14.1685C188.619 14.5039 189.319 15.0718 189.812 15.8005C190.304 16.5292 190.567 17.386 190.567 18.2624C190.567 18.8443 190.451 19.4205 190.225 19.9581C190 20.4957 189.669 20.9841 189.253 21.3954C188.836 21.8068 188.342 22.133 187.798 22.3554C187.254 22.5778 186.671 22.6921 186.082 22.6918L186.084 22.6935ZM68.6896 8.37323H62.8611V26.1509H58.7708V8.37323H52.9422V4.75315H68.6878L68.6896 8.37323ZM151.976 10.3703H156.287L150.778 26.1509H145.841L140.362 10.3703H144.673L148.325 21.8294L151.976 10.3703ZM203.523 10.3703H205.447V14.1337H203.196C201.462 14.1337 200.349 14.9746 200.349 16.6888V26.1509H196.235V10.3703H200.349V13.0219C200.71 11.1463 202.018 10.3703 203.523 10.3703Z" fill="black"></path></g><defs><clipPath id="clip0_1889_901"><rect fill="white" height="31.0502" width="205.621"></rect></clipPath></defs></svg>