<?xml version="1.0" encoding="utf-8"?>
<!-- Generator: Adobe Illustrator 25.4.1, SVG Export Plug-In . SVG Version: 6.00 Build 0)  -->
<svg version="1.1" id="Capa_1" xmlns="http://www.w3.org/2000/svg" xmlns:xlink="http://www.w3.org/1999/xlink" x="0px" y="0px"
	 viewBox="0 0 24 24" style="enable-background:new 0 0 24 24;" xml:space="preserve">
<style type="text/css">
	.st0{fill:none;stroke:#000000;stroke-width:2;stroke-linecap:round;stroke-linejoin:round;}
</style>
<path class="st0" d="M22,4c-1,0.5-2,0.7-3,1c-1.1-1.3-2.8-1.3-4.4-0.7S12,6.3,12,8v1C8.8,9.1,5.9,7.6,4,5c0,0-4.2,7.4,4,11
	c-1.9,1.2-3.7,2.1-6,2c3.3,1.8,6.9,2.4,10,1.5c3.6-1,6.5-3.7,7.7-7.7c0.3-1.2,0.5-2.5,0.5-3.8C20.2,7.8,21.7,5.2,22,4L22,4z"/>
</svg>
